<svg width="64" height="29" viewBox="0 0 64 29" fill="none" xmlns="http://www.w3.org/2000/svg">
<path d="M40.1306 14.4995C40.1049 19.0755 36.4029 22.7775 31.8268 22.8032H28.639V19.1527H31.8268C34.3976 19.1527 36.48 17.0703 36.48 14.4995C36.48 11.9286 34.3976 9.84626 31.8268 9.84626H28.639V6.19569H31.8268C36.4029 6.2214 40.1306 9.92339 40.1306 14.4995ZM22.4433 6.19569V12.9313H16.7104L14.6023 16.5818H26.0939V6.19569H22.4433ZM63.8336 11.3888C63.8336 17.6873 58.7177 22.7775 52.4448 22.7775V28.9732H42.5986V24.1658C39.8478 27.2765 35.8887 29.0503 31.7497 28.9989H22.4433V22.8032H15.1422L11.4916 28.9989H0L16.8903 0H31.8525C35.9658 0.0257083 39.8992 1.77387 42.7014 4.83315V0H52.5477C58.7948 0.0514165 63.8593 5.14165 63.8336 11.3888ZM31.8268 25.3483C36.043 25.3483 39.8735 22.9575 41.6988 19.1527H46.3263V25.3483H48.8971V19.1527H52.5477C56.8152 19.1527 60.2859 15.7077 60.3116 11.4145C60.3116 11.4145 60.3116 11.4145 60.3116 11.3888C60.2602 7.09548 56.7638 3.62486 52.4706 3.62486H46.2491V12.9313H42.5986C41.8016 7.60964 37.2256 3.65057 31.8268 3.62486H19.0755L6.40135 25.3226H9.40922L13.0598 19.1527H26.0939V25.3483H31.8268ZM52.4448 6.19569H48.7943V9.84626H52.4448C53.2932 9.84626 53.9873 10.5147 53.9873 11.3888C53.9873 11.3888 53.9873 11.3888 53.9873 11.4145C53.9616 12.2628 53.2932 12.9313 52.4448 12.957H48.7943V16.6075H52.4448C55.3242 16.6075 57.6379 14.2681 57.6379 11.3888C57.6122 8.53514 55.2985 6.2214 52.4448 6.19569Z" fill="#D0271D"/>
<path d="M57.5607 27.1739C57.5607 27.9709 56.918 28.6393 56.0953 28.6393C55.2983 28.6393 54.6299 27.9966 54.6299 27.1739C54.6299 26.3513 55.2726 25.7085 56.0953 25.7085C56.8923 25.7085 57.535 26.3255 57.5607 27.1225C57.5607 27.1482 57.5607 27.1739 57.5607 27.1739ZM57.9206 27.1739C57.9206 26.1713 57.0979 25.3486 56.0953 25.3486C55.0927 25.3486 54.27 26.1713 54.27 27.1739C54.27 28.1765 55.0927 28.9992 56.0953 28.9992C57.0979 28.9992 57.9206 28.1765 57.9206 27.1739Z" fill="#D0271D"/>
<path d="M56.1982 26.3508C56.4038 26.3508 56.5581 26.5051 56.5581 26.7107C56.5581 26.9164 56.4038 27.0707 56.1982 27.0707H55.8383V26.3508H56.1982ZM56.6352 26.2737C56.5067 26.1709 56.3524 26.0938 56.1725 26.0938H55.4526V28.279H55.7354V27.4563H56.0953L56.5581 28.279H56.918L56.3781 27.3792C56.481 27.3792 56.5581 27.2763 56.6609 27.1992C56.738 27.0964 56.7638 26.9678 56.7638 26.8393C56.8152 26.6336 56.7895 26.4022 56.6352 26.2737Z" fill="#D0271D"/>
</svg>
