<svg width="144" height="26" viewBox="0 0 144 26" fill="none" xmlns="http://www.w3.org/2000/svg">
<path fill-rule="evenodd" clip-rule="evenodd" d="M12.8192 12.5894H0L8.79521 25.2361L17.8778 19.8325L12.8192 12.5894Z" fill="url(#paint0_linear_1351_18607)"/>
<path fill-rule="evenodd" clip-rule="evenodd" d="M29.9497 12.5894L8.79517 25.2361H21.3844L29.9497 12.5894Z" fill="url(#paint1_linear_1351_18607)"/>
<path fill-rule="evenodd" clip-rule="evenodd" d="M0 12.5892H12.8192L17.9353 5.40359L8.79521 0L0 12.5892Z" fill="url(#paint2_linear_1351_18607)"/>
<path fill-rule="evenodd" clip-rule="evenodd" d="M29.9497 12.5892L8.79517 0H21.3844L29.9497 12.5892Z" fill="url(#paint3_linear_1351_18607)"/>
<path d="M144 3.21935C144 3.96666 143.368 4.65648 142.563 4.65648C141.816 4.65648 141.183 4.02414 141.183 3.21935C141.183 2.41456 141.816 1.78223 142.563 1.78223C143.368 1.78223 144 2.41456 144 3.21935ZM143.828 3.21935C143.828 2.52953 143.253 2.01217 142.62 2.01217C141.931 2.01217 141.413 2.58702 141.413 3.21935C141.413 3.85169 141.931 4.42654 142.62 4.42654C143.253 4.42654 143.828 3.90917 143.828 3.21935ZM142.85 3.33432L143.253 3.96666H142.908L142.505 3.33432H142.275V3.96666H141.988V2.41456H142.563C142.85 2.41456 143.023 2.6445 143.023 2.87444C143.138 3.10438 143.023 3.27684 142.85 3.33432ZM142.333 3.10438H142.62C142.735 3.10438 142.85 2.98941 142.85 2.87444C142.85 2.75947 142.735 2.6445 142.62 2.6445H142.333V3.10438ZM91.1712 6.38103H93.2982C93.2982 10.6349 93.2982 14.8313 93.2982 19.0852H91.1712C91.1712 14.8313 91.1712 10.6349 91.1712 6.38103ZM83.4108 6.0936C81.9736 6.0936 80.709 6.61097 79.7317 7.41576V6.38103H77.6048C77.6048 10.6349 77.6048 14.8313 77.6048 19.0852H79.7317C79.7317 16.6708 79.7317 14.314 79.7317 11.8996C79.7317 9.83013 81.3988 8.22055 83.4108 8.22055C85.4227 8.22055 87.0898 9.88761 87.0898 11.8996C87.0898 14.314 87.0898 16.6708 87.0898 19.0852H89.2167C89.2167 16.6708 89.2167 14.314 89.2167 11.8996C89.2742 8.68043 86.6299 6.0936 83.4108 6.0936ZM73.4084 6.38103H75.5353C75.5353 10.4625 75.5353 14.5439 75.5353 18.6253C75.5353 22.3044 72.3161 25.2361 68.9245 25.2361C65.7629 25.2361 63.4634 23.2816 62.6012 20.6373H64.9006C65.5904 22.1319 66.97 23.1092 68.9245 23.1092C71.1664 23.1092 73.4658 21.0972 73.4658 18.5679V17.5331C72.2587 18.6253 70.7066 19.3152 68.9245 19.3152C65.2455 19.3152 62.3137 16.3259 62.3137 12.7044C62.3137 9.02534 65.303 6.0936 68.9245 6.0936C70.6491 6.0936 72.2587 6.78342 73.4658 7.87564V6.38103H73.4084ZM73.4084 12.7044C73.4084 10.2325 71.3964 8.16306 68.867 8.16306C66.3952 8.16306 64.3257 10.175 64.3257 12.7044C64.3257 15.1762 66.3377 17.2457 68.867 17.2457C71.3389 17.2457 73.4084 15.2337 73.4084 12.7044ZM40.5844 8.22055C42.3664 8.22055 43.976 9.31276 44.6659 10.8074H46.9078C46.103 8.10558 43.5736 6.0936 40.5844 6.0936C36.9054 6.0936 33.9736 9.08282 33.9736 12.7044C33.9736 16.3834 36.9629 19.3152 40.5844 19.3152C43.5736 19.3152 46.103 17.3032 46.9078 14.6014H44.6659C43.9185 16.1535 42.3664 17.1882 40.5844 17.1882C38.1126 17.1882 36.0431 15.1762 36.0431 12.6469C36.1006 10.2325 38.1126 8.22055 40.5844 8.22055ZM61.2215 12.7044C61.2215 16.3834 58.2323 19.3152 54.6108 19.3152C50.9892 19.3152 48 16.3259 48 12.7044C48 9.02534 50.9892 6.0936 54.6108 6.0936C58.2323 6.0936 61.2215 9.08282 61.2215 12.7044ZM59.0946 12.7044C59.0946 10.2325 57.0826 8.16306 54.5533 8.16306C52.0239 8.16306 50.012 10.175 50.012 12.7044C50.012 15.1762 52.0239 17.2457 54.5533 17.2457C57.0826 17.2457 59.0946 15.2337 59.0946 12.7044ZM128.364 6.0936C126.927 6.0936 125.662 6.61097 124.685 7.41576V6.38103H122.558C122.558 10.6349 122.558 14.8313 122.558 19.0852H124.685C124.685 16.6708 124.685 14.314 124.685 11.8996C124.685 9.83013 126.352 8.22055 128.364 8.22055C130.376 8.22055 132.043 9.88761 132.043 11.8996C132.043 14.314 132.043 16.6708 132.043 19.0852H134.17C134.17 16.6708 134.17 14.314 134.17 11.8996C134.228 8.68043 131.583 6.0936 128.364 6.0936ZM118.304 6.38103H120.431C120.431 10.6349 120.431 14.8313 120.431 19.0852H118.304V17.5906C117.097 18.6828 115.545 19.3726 113.763 19.3726C110.084 19.3726 107.152 16.3834 107.152 12.7619C107.152 9.08282 110.141 6.15109 113.763 6.15109C115.487 6.15109 117.097 6.84091 118.304 7.93312V6.38103ZM118.304 12.7044C118.304 10.2325 116.292 8.16306 113.763 8.16306C111.291 8.16306 109.222 10.175 109.222 12.7044C109.222 15.1762 111.234 17.2457 113.763 17.2457C116.292 17.2457 118.304 15.2337 118.304 12.7044ZM141.298 8.50797V6.38103H138.136V2.93193H136.01V6.38103V8.50797V14.8313C136.01 17.1882 137.907 19.0852 140.263 19.0852H141.298V16.9583H140.206C139.056 16.9583 138.079 15.981 138.079 14.8313V8.50797H141.298ZM92.2634 1.78223C91.5161 1.78223 90.8838 2.41456 90.8838 3.16187C90.8838 3.90917 91.5161 4.54151 92.2634 4.54151C93.0682 4.54151 93.6431 3.90917 93.6431 3.16187C93.6431 2.41456 93.0108 1.78223 92.2634 1.78223ZM106.06 6.38103C102.553 6.38103 98.9892 6.38103 95.4826 6.38103V8.50797C98.0694 8.50797 100.714 8.50797 103.301 8.50797L95.4826 16.9583V19.0852C98.9892 19.0852 102.553 19.0852 106.06 19.0852V16.9583C103.473 16.9583 100.829 16.9583 98.1844 16.9583L106.06 8.50797V6.38103Z" fill="#000048"/>
<defs>
<linearGradient id="paint0_linear_1351_18607" x1="0.0183505" y1="18.9343" x2="17.9002" y2="18.9343" gradientUnits="userSpaceOnUse">
<stop stop-color="#3D54CE"/>
<stop offset="1" stop-color="#35CACF"/>
</linearGradient>
<linearGradient id="paint1_linear_1351_18607" x1="8.80123" y1="18.9343" x2="29.9834" y2="18.9343" gradientUnits="userSpaceOnUse">
<stop stop-color="#13457D"/>
<stop offset="1" stop-color="#279698"/>
</linearGradient>
<linearGradient id="paint2_linear_1351_18607" x1="-0.000471872" y1="6.30091" x2="17.8951" y2="6.30091" gradientUnits="userSpaceOnUse">
<stop stop-color="#090086"/>
<stop offset="1" stop-color="#2F96A9"/>
</linearGradient>
<linearGradient id="paint3_linear_1351_18607" x1="8.80123" y1="6.3009" x2="29.9834" y2="6.3009" gradientUnits="userSpaceOnUse">
<stop stop-color="#3B62CA"/>
<stop offset="1" stop-color="#93DFE3"/>
</linearGradient>
</defs>
</svg>
